<?xml version="1.0" encoding="utf-8"?>
<!-- Generator: Adobe Illustrator 26.0.2, SVG Export Plug-In . SVG Version: 6.00 Build 0)  -->
<svg version="1.1" id="Layer_2" xmlns="http://www.w3.org/2000/svg" xmlns:xlink="http://www.w3.org/1999/xlink" x="0px" y="0px"
	 viewBox="0 0 150 150" style="enable-background:new 0 0 150 150;" xml:space="preserve">
<style type="text/css">
	.st0{fill:#008FBE;}
</style>
<g>
	<path class="st0" d="M26.8,15h19.1v7H40v48.6h-7.5V22h-5.8V15z"/>
	<path class="st0" d="M65.6,70.5H51.1V15h14.5v7h-7v17.1h6.1v6.1h-6.1v18.4h7V70.5z"/>
	<path class="st0" d="M82.2,59.6h-4.6l-0.6,11h-7.6L74.8,15h10.7l5.3,55.6h-7.9L82.2,59.6z M78,52.6h3.8l-0.5-9
		c-0.3-4.2-1.1-17.7-1.5-24.4c-0.5,6.7-1,20.5-1.2,24.4L78,52.6z"/>
	<path class="st0" d="M102.3,70.5h-6.8V15h9.8l2.6,28.3l3-28.3h9.2v55.6h-7.2V57.5c0-8.6,0.6-23.3,1.1-31.4l-4.4,38.8h-3.9
		l-4.3-40.4c0.3,8,0.9,23.7,0.9,33.1V70.5z"/>
	<path class="st0" d="M24.4,135.7h-9.3V80.1h9.3c6.2,0,10,3.3,10,11.2v8.1c0,5.1-1.6,7.6-3.7,9c2.2,1.4,3.7,3.9,3.7,8.2v8.1
		C34.3,132.3,30.3,135.7,24.4,135.7z M22.6,87.1v18.4h0.9c2.6,0,3.3-0.9,3.3-4V90.9c0-2.6-0.8-3.7-3-3.7H22.6z M22.6,111.6v17.1h1.2
		c2.3,0,3-1.2,3-3.9v-9.5c0-2.6-0.9-3.7-3.3-3.7H22.6z"/>
	<path class="st0" d="M51.8,124.7h-4.6l-0.6,11h-7.6l5.4-55.6h10.7l5.3,55.6h-7.9L51.8,124.7z M47.6,117.8h3.8l-0.5-9
		c-0.3-4.2-1.1-17.7-1.5-24.4c-0.5,6.7-1,20.5-1.2,24.4L47.6,117.8z"/>
	<path class="st0" d="M73.9,116.9h-1.3v18.8h-7.5V80.1h9.3c6.3,0,10,3.5,10,11.2v14.3c0,5.7-2,9.1-5.7,10.5c1.9,0.7,2.8,2.7,3.6,6.4
		c0.5,2.2,2.5,13.2,2.5,13.2H77L73.9,116.9z M72.6,87.1v23.3h1.2c2.4,0,3-1.3,3-4V91.1c0-2.6-0.6-4-3-4H72.6z"/>
	<path class="st0" d="M99.7,116.9h-1.3v18.8h-7.5V80.1h9.3c6.3,0,10,3.5,10,11.2v14.3c0,5.7-2,9.1-5.7,10.5c1.9,0.7,2.8,2.7,3.6,6.4
		c0.5,2.2,2.5,13.2,2.5,13.2h-7.8L99.7,116.9z M98.4,87.1v23.3h1.2c2.4,0,3-1.3,3-4V91.1c0-2.6-0.6-4-3-4H98.4z"/>
	<path class="st0" d="M128.3,120.8v14.9h-7.5v-14.9l-6.7-40.7h7.9l2.9,29.6l2.7-29.6h7.6L128.3,120.8z"/>
</g>
</svg>
