<?xml version="1.0" encoding="utf-8"?>
<!-- Generator: Adobe Illustrator 26.0.2, SVG Export Plug-In . SVG Version: 6.00 Build 0)  -->
<svg version="1.1" id="Layer_2" xmlns="http://www.w3.org/2000/svg" xmlns:xlink="http://www.w3.org/1999/xlink" x="0px" y="0px"
	 viewBox="0 0 150 150" style="enable-background:new 0 0 150 150;" xml:space="preserve">
<style type="text/css">
	.st0{fill:#A91B2E;}
</style>
<g>
	<path class="st0" d="M41.3,21.7H38V15h13.9v6.8h-3.3v49.9h-7.3V21.7z"/>
	<path class="st0" d="M68.4,15v6.8h-5.1v16.5h4.4v7h-4.4v19.5h5.3v6.9H56V15H68.4z"/>
	<path class="st0" d="M81.4,60.1H79l-0.5,11.5h-6.4L75.8,15h9.4L89,71.6h-7.2L81.4,60.1z M80.2,29.7l-0.9,23.9h1.8L80.2,29.7z"/>
	<path class="st0" d="M92.7,15h8.4l1.4,28.9l1.4-28.9h8.2v56.6h-6.2v-33l-2.2,33h-2.6l-2.3-33v33h-6V15z"/>
	<path class="st0" d="M17.1,78.7h10.6c3.3,0,5.7,1.8,5.7,6.3v43.7c0,4.5-2.3,6.6-5.6,6.6H17.1V78.7z M24.4,129.1h0.7
		c0.6,0,0.9-0.5,0.9-1.4V86.2c0-0.9-0.3-1.4-0.9-1.4h-0.7V129.1z"/>
	<path class="st0" d="M45.4,135.7c-5.7,0-7.8-3.3-7.8-7.2V78.7h7.5v49c0,0.8,0.2,1.1,0.8,1.1c0.5,0,0.8-0.4,0.8-1.1v-49h7.5v49.9
		c0,3.9-2.4,7.2-7.8,7.2H45.4z"/>
	<path class="st0" d="M66,135.3h-7.5V78.7h11.6c2.7,0,4.6,1.7,4.6,5.3v16.4c0,3-1.4,4.2-2.6,4.7c1.2,0.5,2.7,1.8,2.7,4.1v24.1
		c0,0.8,0.1,1.4,0.3,1.9v0.2h-7.2c-0.4-0.4-0.5-1-0.5-1.8v-23.2c0-0.5,0-1-0.8-1H66V135.3z M66,102.9h0.5c0.5,0,0.8-0.3,0.8-1V85.4
		c0-0.7-0.1-1-0.8-1H66V102.9z"/>
	<path class="st0" d="M87.6,123.8h-2.4l-0.5,11.5h-6.4L82,78.7h9.4l3.8,56.6h-7.2L87.6,123.8z M86.5,93.5l-0.9,23.9h1.8L86.5,93.5z"
		/>
	<path class="st0" d="M106.4,78.7l2.9,32.7l-0.2-32.7h6.1v56.6h-6.9l-3.5-36.4l0.1,36.4h-6V78.7H106.4z"/>
	<path class="st0" d="M122.6,85.5h-3.3v-6.8h13.9v6.8h-3.3v49.9h-7.3V85.5z"/>
</g>
</svg>
