<?xml version="1.0" encoding="utf-8"?>
<!-- Generator: Adobe Illustrator 26.0.2, SVG Export Plug-In . SVG Version: 6.00 Build 0)  -->
<svg version="1.1" xmlns="http://www.w3.org/2000/svg" xmlns:xlink="http://www.w3.org/1999/xlink" x="0px" y="0px"
	 viewBox="0 0 150 150" style="enable-background:new 0 0 150 150;" xml:space="preserve">
<style type="text/css">
	.st0{fill:#FFFFFF;stroke:#FFFFFF;stroke-width:6;stroke-miterlimit:10;}
	.st1{fill:#78252E;}
</style>
<g id="Layer_3">
	<g>
		<path class="st0" d="M28.2,15.3h19v7h-5.8v48.3H34V22.3h-5.7L28.2,15.3L28.2,15.3z"/>
		<path class="st0" d="M66.7,70.7H52.3V15.3h14.4v7h-7v17h6v6h-6v18.3h7V70.7z"/>
		<path class="st0" d="M83.3,59.7h-4.6l-0.6,10.9h-7.5L76,15.3h10.6l5.3,55.3H84L83.3,59.7z M79.1,52.8h3.8l-0.5-9
			c-0.3-4.2-1.1-17.7-1.5-24.3c-0.5,6.7-1,20.4-1.2,24.3L79.1,52.8z"/>
		<path class="st0" d="M103.3,70.7h-6.7V15.3h9.8l2.6,28.1l3-28.1h9.1v55.3h-7.2v-13c0-8.6,0.6-23.2,1.1-31.3l-4.4,38.6h-3.9
			l-4.3-40.2c0.3,8,0.9,23.6,0.9,32.9V70.7z"/>
		<path class="st0" d="M34.7,80.2v55.3h-7.4V80.2H34.7z"/>
		<path class="st0" d="M59.9,124.7c0,8.2-4.1,11.3-9.5,11.3c-6.4,0-9.7-3.3-9.7-10.8v-7.7h7.4v8.3c0,2.6,0.9,3.3,2.2,3.3
			c1.6,0,2.1-1.6,2.1-4.1v-2.1c0-4-1-5.3-5.5-12.1c-3.8-5.9-5.9-11-5.9-16.5V92c0-8.2,3.4-12.2,9.5-12.2c5.3,0,9.4,1.7,9.4,12.2v7
			h-7.3v-7.7c0-3-0.5-4.6-2.1-4.6s-2.2,1.2-2.2,4.6v1.5c0,4.8,1.4,7.6,5.2,13.3c4,6.1,6.4,9.8,6.4,16
			C59.9,122.1,59.9,124.7,59.9,124.7z"/>
		<path class="st0" d="M73.4,80.2v55.3H66V80.2H73.4z"/>
		<path class="st0" d="M90.9,124.6h-4.6l-0.6,10.9h-7.5l5.3-55.3h10.6l5.3,55.3h-7.8L90.9,124.6z M86.7,117.7h3.8l-0.5-9
			c-0.3-4.2-1.1-17.7-1.5-24.3c-0.5,6.7-1,20.4-1.2,24.3L86.7,117.7z"/>
		<path class="st0" d="M115.8,111.8h-4.3v23.7h-7.4V80.2h7.4v25.1h4.3V80.2h7.4v55.3h-7.4V111.8z"/>
	</g>
</g>
<g id="Layer_3_copy">
	<g>
		<path class="st1" d="M28.2,15.3h19v7h-5.8v48.3H34V22.3h-5.7L28.2,15.3L28.2,15.3z"/>
		<path class="st1" d="M66.7,70.7H52.3V15.3h14.4v7h-7v17h6v6h-6v18.3h7V70.7z"/>
		<path class="st1" d="M83.3,59.7h-4.6l-0.6,10.9h-7.5L76,15.3h10.6l5.3,55.3H84L83.3,59.7z M79.1,52.8h3.8l-0.5-9
			c-0.3-4.2-1.1-17.7-1.5-24.3c-0.5,6.7-1,20.4-1.2,24.3L79.1,52.8z"/>
		<path class="st1" d="M103.3,70.7h-6.7V15.3h9.8l2.6,28.1l3-28.1h9.1v55.3h-7.2v-13c0-8.6,0.6-23.2,1.1-31.3l-4.4,38.6h-3.9
			l-4.3-40.2c0.3,8,0.9,23.6,0.9,32.9V70.7z"/>
		<path class="st1" d="M34.7,80.2v55.3h-7.4V80.2H34.7z"/>
		<path class="st1" d="M59.9,124.7c0,8.2-4.1,11.3-9.5,11.3c-6.4,0-9.7-3.3-9.7-10.8v-7.7h7.4v8.3c0,2.6,0.9,3.3,2.2,3.3
			c1.6,0,2.1-1.6,2.1-4.1v-2.1c0-4-1-5.3-5.5-12.1c-3.8-5.9-5.9-11-5.9-16.5V92c0-8.2,3.4-12.2,9.5-12.2c5.3,0,9.4,1.7,9.4,12.2v7
			h-7.3v-7.7c0-3-0.5-4.6-2.1-4.6s-2.2,1.2-2.2,4.6v1.5c0,4.8,1.4,7.6,5.2,13.3c4,6.1,6.4,9.8,6.4,16
			C59.9,122.1,59.9,124.7,59.9,124.7z"/>
		<path class="st1" d="M73.4,80.2v55.3H66V80.2H73.4z"/>
		<path class="st1" d="M90.9,124.6h-4.6l-0.6,10.9h-7.5l5.3-55.3h10.6l5.3,55.3h-7.8L90.9,124.6z M86.7,117.7h3.8l-0.5-9
			c-0.3-4.2-1.1-17.7-1.5-24.3c-0.5,6.7-1,20.4-1.2,24.3L86.7,117.7z"/>
		<path class="st1" d="M115.8,111.8h-4.3v23.7h-7.4V80.2h7.4v25.1h4.3V80.2h7.4v55.3h-7.4V111.8z"/>
	</g>
</g>
</svg>
