<?xml version="1.0" encoding="utf-8"?>
<!-- Generator: Adobe Illustrator 26.0.2, SVG Export Plug-In . SVG Version: 6.00 Build 0)  -->
<svg version="1.1" id="Layer_2" xmlns="http://www.w3.org/2000/svg" xmlns:xlink="http://www.w3.org/1999/xlink" x="0px" y="0px"
	 viewBox="0 0 150 150" style="enable-background:new 0 0 150 150;" xml:space="preserve">
<style type="text/css">
	.st0{fill:#009CCD;}
</style>
<g>
	<g>
		<path class="st0" d="M41.5,21.7h-3.3V15h13.9v6.8h-3.3v49.8h-7.3V21.7z"/>
		<path class="st0" d="M68.6,15v6.8h-5.1v16.5H68v7h-4.4v19.5h5.2v6.8H56.3V15H68.6z"/>
		<path class="st0" d="M81.6,60h-2.4l-0.5,11.5h-6.4L75.9,15h9.4l3.8,56.6H82L81.6,60z M80.4,29.7l-0.9,23.9h1.8L80.4,29.7z"/>
		<path class="st0" d="M92.8,15h8.4l1.4,28.8l1.4-28.8h8.2v56.6h-6.2v-33l-2.2,33h-2.6l-2.3-33v33h-6V15z"/>
	</g>
	<g>
		<path class="st0" d="M26.8,78.8l0.1,49.6h4.6v6.9H19.5V78.8H26.8z"/>
		<path class="st0" d="M47.9,87.4v6.8h-5.1v12.2h4.4v7h-4.4v15.1H48v6.8H35.5V87.4H47.9z"/>
		<path class="st0" d="M52.1,78.8h11.2c3,0,4.9,1.6,4.9,5.5v16c0,2.8-1.7,4.2-2.9,4.5c1.3,0.4,3.4,1.7,3.4,5.2v18.9
			c0,4.3-1.8,6.5-5.6,6.5H52.1V78.8z M59.6,84.5v18.2h0.5c0.6,0,0.9-0.4,0.9-1.1V85.5c0-0.8-0.1-1.1-0.9-1.1H59.6z M59.6,108.3v21.2
			h0.7c0.8,0,0.8-0.3,0.8-1.1v-18.9c0-0.8-0.3-1.2-0.8-1.2H59.6z"/>
		<path class="st0" d="M80.4,135.3h-7.5V78.8h11.6c2.7,0,4.6,1.7,4.6,5.2v16.3c0,3-1.4,4.2-2.6,4.7c1.2,0.5,2.7,1.7,2.7,4.1v24.1
			c0,0.8,0.1,1.4,0.3,1.9v0.2h-7.2c-0.4-0.4-0.5-1-0.5-1.8v-23.2c0-0.5,0-1-0.8-1h-0.5V135.3z M80.4,102.9h0.5c0.5,0,0.8-0.3,0.8-1
			V85.5c0-0.7-0.1-1-0.8-1h-0.6V102.9z"/>
		<path class="st0" d="M110.2,127.3c0,5.5-2.9,8.4-7.8,8.4h-1.1c-5.2,0-7.9-3-7.9-8.4V87c0-5.4,2.4-8.6,7.9-8.6h1.1
			c5.5,0,7.8,3.3,7.8,8.6V127.3z M102.7,86.2c0-0.8-0.3-1.3-0.8-1.3c-0.5,0-0.8,0.5-0.8,1.3v41.7c0,0.8,0.3,1.2,0.8,1.2
			c0.5,0,0.8-0.4,0.8-1.2V86.2z"/>
		<path class="st0" d="M122.1,78.8l2.9,32.6l-0.2-32.6h6.1v56.6H124L120.5,99l0.1,36.3h-6V78.8H122.1z"/>
	</g>
</g>
</svg>
