<?xml version="1.0" encoding="utf-8"?>
<!-- Generator: Adobe Illustrator 26.0.2, SVG Export Plug-In . SVG Version: 6.00 Build 0)  -->
<svg version="1.1" xmlns="http://www.w3.org/2000/svg" xmlns:xlink="http://www.w3.org/1999/xlink" x="0px" y="0px"
	 viewBox="0 0 150 150" style="enable-background:new 0 0 150 150;" xml:space="preserve">
<style type="text/css">
	.st0{fill:#FCFAFA;stroke:#FCFAFA;stroke-width:7;stroke-miterlimit:10;}
	.st1{fill:#1E2945;}
	.st2{fill:#FCFAFA;stroke:#FCFAFA;stroke-width:6;stroke-miterlimit:10;}
</style>
<g id="Layer_3_00000042738663838396215260000018289931366472658106_">
</g>
<g id="Layer_1">
	<g id="Layer_1_00000124127708381770781340000000731956480158223001_">
		<g id="Layer_2_00000119824498693401100460000011946495060372342682_">
			<g>
				<path class="st0" d="M28.9,16h18.6v6.9h-5.8v47.5h-7.3V22.9h-5.6L28.9,16L28.9,16z"/>
				<path class="st0" d="M66.8,70.4H52.6V16h14.1v6.9h-6.9v16.7h6.1v6h-6v18h6.9V70.4z"/>
				<path class="st0" d="M83.1,59.7h-4.5L78,70.4h-7.3L76,16.1h10.3l5.2,54.3h-7.7L83.1,59.7z M79,52.9h3.7l-0.6-8.8
					c-0.3-4.1-1-17.4-1.5-23.9c-0.5,6.5-1,20-1.2,23.9L79,52.9z"/>
				<path class="st0" d="M102.7,70.4h-6.7V16h9.6l2.5,27.7l2.9-27.7h9v54.4H113V57.6c0-8.5,0.6-22.8,1-30.7l-4.2,37.9H106l-4.2-39.5
					c0.3,7.8,0.9,23.1,0.9,32.4C102.7,57.7,102.7,70.4,102.7,70.4z"/>
				<path class="st0" d="M14.3,118v16.1H7V79.8h9c6.2,0,9.7,3.5,9.7,11v16.1c0,7.5-3.6,11.1-9.7,11.1C16,118,14.3,118,14.3,118z
					 M14.3,86.7v24.8h1.2c2.3,0,2.9-1.2,2.9-3.8V90.5c0-2.6-0.7-3.8-2.9-3.8H14.3z"/>
				<path class="st0" d="M41.4,123.4h-4.5l-0.6,10.7H29l5.3-54.3h10.4l5.2,54.3h-7.7L41.4,123.4z M37.3,116.6H41l-0.6-8.8
					c-0.3-4.1-1-17.4-1.5-23.9c-0.5,6.5-1,20-1.2,23.9L37.3,116.6z"/>
				<path class="st0" d="M64.4,119.6v14.6H57v-14.6l-6.5-39.9h7.7l2.8,28.9l2.7-28.8h7.5L64.4,119.6z"/>
				<path class="st0" d="M74.2,79.8h18.6v6.9H87v47.5h-7.3V86.7h-5.6L74.2,79.8L74.2,79.8z"/>
				<path class="st0" d="M116.3,90.4v33.2c0,8.2-2.9,11.1-9.4,11.1c-6.4,0-9.5-2.7-9.5-11.1V90.4c0-8.2,3-11.1,9.5-11.1
					C113.2,79.4,116.3,82.1,116.3,90.4z M109.1,89.7c0-2.7-0.7-3.5-2-3.5c-1.5,0-2.1,0.8-2.1,3.5v34.5c0,2.7,0.7,3.5,2.1,3.5
					c1.4,0,2-0.8,2-3.5V89.7z"/>
				<path class="st0" d="M129.2,134.1h-6.4V79.8h9.9l6.7,45.3c-1-10.6-2.3-28.1-2.3-37.4v-7.9h6.4v54.3h-9l-6.3-43.4
					c0.6,9.7,0.9,21.2,0.9,27.8L129.2,134.1L129.2,134.1z"/>
			</g>
		</g>
	</g>
	<g id="Layer_3">
		<g id="Layer_2_copy">
			<g>
				<path class="st1" d="M28.9,16h18.6v6.9h-5.8v47.5h-7.3V22.9h-5.6L28.9,16L28.9,16z"/>
				<path class="st1" d="M66.8,70.4H52.6V16h14.1v6.9h-6.9v16.7h6.1v6h-6v18h6.9V70.4z"/>
				<path class="st1" d="M83.1,59.7h-4.5L78,70.4h-7.3L76,16.1h10.3l5.2,54.3h-7.7L83.1,59.7z M79,52.9h3.7l-0.6-8.8
					c-0.3-4.1-1-17.4-1.5-23.9c-0.5,6.5-1,20-1.2,23.9L79,52.9z"/>
				<path class="st1" d="M102.7,70.4h-6.7V16h9.6l2.5,27.7l2.9-27.7h9v54.4H113V57.6c0-8.5,0.6-22.8,1-30.7l-4.2,37.9H106l-4.2-39.5
					c0.3,7.8,0.9,23.1,0.9,32.4C102.7,57.7,102.7,70.4,102.7,70.4z"/>
				<path class="st1" d="M14.3,118v16.1H7V79.8h9c6.2,0,9.7,3.5,9.7,11v16.1c0,7.5-3.6,11.1-9.7,11.1C16,118,14.3,118,14.3,118z
					 M14.3,86.7v24.8h1.2c2.3,0,2.9-1.2,2.9-3.8V90.5c0-2.6-0.7-3.8-2.9-3.8H14.3z"/>
				<path class="st1" d="M41.4,123.4h-4.5l-0.6,10.7H29l5.3-54.3h10.4l5.2,54.3h-7.7L41.4,123.4z M37.3,116.6H41l-0.6-8.8
					c-0.3-4.1-1-17.4-1.5-23.9c-0.5,6.5-1,20-1.2,23.9L37.3,116.6z"/>
				<path class="st1" d="M64.4,119.6v14.6H57v-14.6l-6.5-39.9h7.7l2.8,28.9l2.7-28.8h7.5L64.4,119.6z"/>
				<path class="st1" d="M74.2,79.8h18.6v6.9H87v47.5h-7.3V86.7h-5.6L74.2,79.8L74.2,79.8z"/>
				<path class="st1" d="M116.3,90.4v33.2c0,8.2-2.9,11.1-9.4,11.1c-6.4,0-9.5-2.7-9.5-11.1V90.4c0-8.2,3-11.1,9.5-11.1
					C113.2,79.4,116.3,82.1,116.3,90.4z M109.1,89.7c0-2.7-0.7-3.5-2-3.5c-1.5,0-2.1,0.8-2.1,3.5v34.5c0,2.7,0.7,3.5,2.1,3.5
					c1.4,0,2-0.8,2-3.5V89.7z"/>
				<path class="st1" d="M129.2,134.1h-6.4V79.8h9.9l6.7,45.3c-1-10.6-2.3-28.1-2.3-37.4v-7.9h6.4v54.3h-9l-6.3-43.4
					c0.6,9.7,0.9,21.2,0.9,27.8L129.2,134.1L129.2,134.1z"/>
			</g>
		</g>
	</g>
	<g id="Layer_1_copy">
		<g id="Layer_2_00000085216726892406543100000011094452746775701163_">
			<g>
				<path class="st2" d="M28.9,16h18.6v6.9h-5.8v47.5h-7.3V22.9h-5.6L28.9,16L28.9,16z"/>
				<path class="st2" d="M66.8,70.4H52.6V16h14.1v6.9h-6.9v16.7h6.1v6h-6v18h6.9V70.4z"/>
				<path class="st2" d="M83.1,59.7h-4.5L78,70.4h-7.3L76,16.1h10.3l5.2,54.3h-7.7L83.1,59.7z M79,52.9h3.7l-0.6-8.8
					c-0.3-4.1-1-17.4-1.5-23.9c-0.5,6.5-1,20-1.2,23.9L79,52.9z"/>
				<path class="st2" d="M102.7,70.4h-6.7V16h9.6l2.5,27.7l2.9-27.7h9v54.4H113V57.6c0-8.5,0.6-22.8,1-30.7l-4.2,37.9H106l-4.2-39.5
					c0.3,7.8,0.9,23.1,0.9,32.4C102.7,57.7,102.7,70.4,102.7,70.4z"/>
				<path class="st2" d="M14.3,118v16.1H7V79.8h9c6.2,0,9.7,3.5,9.7,11v16.1c0,7.5-3.6,11.1-9.7,11.1C16,118,14.3,118,14.3,118z
					 M14.3,86.7v24.8h1.2c2.3,0,2.9-1.2,2.9-3.8V90.5c0-2.6-0.7-3.8-2.9-3.8H14.3z"/>
				<path class="st2" d="M41.4,123.4h-4.5l-0.6,10.7H29l5.3-54.3h10.4l5.2,54.3h-7.7L41.4,123.4z M37.3,116.6H41l-0.6-8.8
					c-0.3-4.1-1-17.4-1.5-23.9c-0.5,6.5-1,20-1.2,23.9L37.3,116.6z"/>
				<path class="st2" d="M64.4,119.6v14.6H57v-14.6l-6.5-39.9h7.7l2.8,28.9l2.7-28.8h7.5L64.4,119.6z"/>
				<path class="st2" d="M74.2,79.8h18.6v6.9H87v47.5h-7.3V86.7h-5.6L74.2,79.8L74.2,79.8z"/>
				<path class="st2" d="M116.3,90.4v33.2c0,8.2-2.9,11.1-9.4,11.1c-6.4,0-9.5-2.7-9.5-11.1V90.4c0-8.2,3-11.1,9.5-11.1
					C113.2,79.4,116.3,82.1,116.3,90.4z M109.1,89.7c0-2.7-0.7-3.5-2-3.5c-1.5,0-2.1,0.8-2.1,3.5v34.5c0,2.7,0.7,3.5,2.1,3.5
					c1.4,0,2-0.8,2-3.5V89.7z"/>
				<path class="st2" d="M129.2,134.1h-6.4V79.8h9.9l6.7,45.3c-1-10.6-2.3-28.1-2.3-37.4v-7.9h6.4v54.3h-9l-6.3-43.4
					c0.6,9.7,0.9,21.2,0.9,27.8L129.2,134.1L129.2,134.1z"/>
			</g>
		</g>
		<g id="Layer_2_copy_00000069378779490397702770000003684284468549589687_">
			<g>
				<path class="st1" d="M28.9,16h18.6v6.9h-5.8v47.5h-7.3V22.9h-5.6L28.9,16L28.9,16z"/>
				<path class="st1" d="M66.8,70.4H52.6V16h14.1v6.9h-6.9v16.7h6.1v6h-6v18h6.9V70.4z"/>
				<path class="st1" d="M83.1,59.7h-4.5L78,70.4h-7.3L76,16.1h10.3l5.2,54.3h-7.7L83.1,59.7z M79,52.9h3.7l-0.6-8.8
					c-0.3-4.1-1-17.4-1.5-23.9c-0.5,6.5-1,20-1.2,23.9L79,52.9z"/>
				<path class="st1" d="M102.7,70.4h-6.7V16h9.6l2.5,27.7l2.9-27.7h9v54.4H113V57.6c0-8.5,0.6-22.8,1-30.7l-4.2,37.9H106l-4.2-39.5
					c0.3,7.8,0.9,23.1,0.9,32.4C102.7,57.7,102.7,70.4,102.7,70.4z"/>
				<path class="st1" d="M14.3,118v16.1H7V79.8h9c6.2,0,9.7,3.5,9.7,11v16.1c0,7.5-3.6,11.1-9.7,11.1C16,118,14.3,118,14.3,118z
					 M14.3,86.7v24.8h1.2c2.3,0,2.9-1.2,2.9-3.8V90.5c0-2.6-0.7-3.8-2.9-3.8H14.3z"/>
				<path class="st1" d="M41.4,123.4h-4.5l-0.6,10.7H29l5.3-54.3h10.4l5.2,54.3h-7.7L41.4,123.4z M37.3,116.6H41l-0.6-8.8
					c-0.3-4.1-1-17.4-1.5-23.9c-0.5,6.5-1,20-1.2,23.9L37.3,116.6z"/>
				<path class="st1" d="M64.4,119.6v14.6H57v-14.6l-6.5-39.9h7.7l2.8,28.9l2.7-28.8h7.5L64.4,119.6z"/>
				<path class="st1" d="M74.2,79.8h18.6v6.9H87v47.5h-7.3V86.7h-5.6L74.2,79.8L74.2,79.8z"/>
				<path class="st1" d="M116.3,90.4v33.2c0,8.2-2.9,11.1-9.4,11.1c-6.4,0-9.5-2.7-9.5-11.1V90.4c0-8.2,3-11.1,9.5-11.1
					C113.2,79.4,116.3,82.1,116.3,90.4z M109.1,89.7c0-2.7-0.7-3.5-2-3.5c-1.5,0-2.1,0.8-2.1,3.5v34.5c0,2.7,0.7,3.5,2.1,3.5
					c1.4,0,2-0.8,2-3.5V89.7z"/>
				<path class="st1" d="M129.2,134.1h-6.4V79.8h9.9l6.7,45.3c-1-10.6-2.3-28.1-2.3-37.4v-7.9h6.4v54.3h-9l-6.3-43.4
					c0.6,9.7,0.9,21.2,0.9,27.8L129.2,134.1L129.2,134.1z"/>
			</g>
		</g>
	</g>
</g>
</svg>
