<?xml version="1.0" encoding="utf-8"?>
<!-- Generator: Adobe Illustrator 26.3.1, SVG Export Plug-In . SVG Version: 6.00 Build 0)  -->
<svg version="1.1" id="Layer_2_1_" xmlns="http://www.w3.org/2000/svg" xmlns:xlink="http://www.w3.org/1999/xlink" x="0px" y="0px"
	 viewBox="0 0 512 512" style="enable-background:new 0 0 512 512;" xml:space="preserve">
<style type="text/css">
	.st0{fill:#FFFFFF;}
	.st1{fill:#002B5C;}
	.st2{fill:#F89F1B;}
	.st3{fill:#00471A;}
</style>
<g id="Layer_2_2_">
	<path class="st0" d="M187.2,277.5l79-180.6h239.9l-43.4,99.5H260c-8.9,20-52.3,119.8-57.4,131.4v4.8c0,41.9-35.4,96.1-98.3,96.1
		c-54.3,0-98.3-44.1-98.3-98.3s44.1-98.3,98.3-98.3C138.4,232.1,170.6,250.4,187.2,277.5"/>
	<path class="st1" d="M11.9,334.6c1.1,24.3,11.7,46.2,28.1,62.1c17.4-15.5,28.8-37.4,30.1-62.1H11.9z"/>
	<path class="st2" d="M78.1,334.6c-1.3,26.7-13.4,50.7-32,67.6c14.9,12.1,33.7,19.7,54.3,20.5v-88.1H78.1L78.1,334.6z"/>
	<path class="st1" d="M11.8,326.5H70c-1-25-12.5-47.2-30.1-62.7C23.6,279.9,12.9,302,11.8,326.5"/>
	<path class="st2" d="M46.2,258.4c18.8,16.9,30.9,41,32,68h22.1v-88.7C79.8,238.7,61.1,246.3,46.2,258.4"/>
	<path class="st1" d="M196.8,334.6h-58.1c1.3,24.6,12.5,46.8,30.1,62.1C185.1,380.9,195.6,359.1,196.8,334.6"/>
	<path class="st3" d="M130.6,334.6h-22.2v88.1c20.5-1,39.2-8.6,54.3-20.5C143.9,385.4,131.8,361.5,130.6,334.6"/>
	<path class="st3" d="M162.6,258.4c-14.9-12.2-33.7-19.7-54.3-20.5v88.6h22.1C131.7,299.5,143.6,275.3,162.6,258.4"/>
	<path class="st1" d="M270,102.7l-82.2,188.2c-4.9-10.1-11.4-19.3-19.3-26.8c-17.6,15.6-29,37.7-30.1,62.7h58.1l59.3-136.2h173.7
		l38.2-87.9C467.8,102.7,270,102.7,270,102.7z"/>
	<polygon class="st3" points="458.9,190.4 497.2,102.7 480.8,102.7 442.6,190.4 	"/>
</g>
</svg>
