<?xml version="1.0" encoding="utf-8"?>
<!-- Generator: Adobe Illustrator 26.0.2, SVG Export Plug-In . SVG Version: 6.00 Build 0)  -->
<svg version="1.1" id="Layer_2" xmlns="http://www.w3.org/2000/svg" xmlns:xlink="http://www.w3.org/1999/xlink" x="0px" y="0px"
	 viewBox="0 0 150 150" style="enable-background:new 0 0 150 150;" xml:space="preserve">
<style type="text/css">
	.st0{fill:#FF6B12;}
</style>
<g>
	<path class="st0" d="M37.8,27.6h15v5.5h-4.6v38.3h-5.9V33.1h-4.5V27.6z"/>
	<path class="st0" d="M68.4,71.4H57V27.6h11.4v5.5h-5.5v13.5h4.8v4.8h-4.8v14.5h5.5V71.4z"/>
	<path class="st0" d="M81.5,62.7h-3.6l-0.5,8.7h-6l4.2-43.8h8.4l4.2,43.8h-6.2L81.5,62.7z M78.2,57.3h3l-0.4-7.1
		c-0.2-3.3-0.9-14-1.2-19.3c-0.4,5.3-0.8,16.1-1,19.3L78.2,57.3z"/>
	<path class="st0" d="M97.3,71.4H92V27.6h7.7l2,22.3l2.4-22.3h7.2v43.8h-5.7V61.1c0-6.8,0.5-18.4,0.9-24.8L103,66.8H100L96.6,35
		c0.2,6.3,0.7,18.7,0.7,26.1V71.4z"/>
	<path class="st0" d="M35,122.7h-6.4L26.9,100l-0.2-4l-0.3,4l-1.9,22.7H18l-3.2-43.8h6.1l0.8,24.7l0.1,5.2l0.4-5.2l2-24.7h5.1
		l2.1,24.7l0.4,5.1c0-1.7,0.1-3.4,0.1-5.1l0.7-24.7h5.9L35,122.7z"/>
	<path class="st0" d="M57.3,87.5v26.8c0,6.7-2.4,8.9-7.5,8.9c-5.2,0-7.6-2.2-7.6-8.9V87.5c0-6.7,2.5-8.9,7.6-8.9
		C54.9,78.6,57.3,80.8,57.3,87.5z M51.4,86.9c0-2.2-0.6-2.8-1.7-2.8c-1.2,0-1.7,0.6-1.7,2.8v27.9c0,2.2,0.6,2.8,1.7,2.8
		c1.1,0,1.7-0.6,1.7-2.8V86.9z"/>
	<path class="st0" d="M69.4,107.9h-1v14.8h-5.9V78.9h7.3c5,0,7.9,2.8,7.9,8.8v11.3c0,4.5-1.6,7.2-4.5,8.3c1.5,0.6,2.2,2.1,2.8,5
		c0.4,1.7,2,10.4,2,10.4h-6.1L69.4,107.9z M68.4,84.5v18.3h1c1.9,0,2.4-1,2.4-3.1V87.6c0-2.1-0.5-3.1-2.4-3.1H68.4z"/>
	<path class="st0" d="M81.1,78.9h15v5.5h-4.6v38.3h-5.9V84.5h-4.5V78.9z"/>
	<path class="st0" d="M109.5,104h-3.4v18.8h-5.9V78.9h5.9v19.9h3.4V78.9h5.9v43.8h-5.9V104z"/>
	<path class="st0" d="M130.1,111v11.7h-5.9V111l-5.3-32.1h6.2l2.3,23.3l2.1-23.3h6L130.1,111z"/>
</g>
</svg>
